<?xml version="1.0" encoding="UTF-8" standalone="no"?>
<svg
   xmlns:dc="http://purl.org/dc/elements/1.1/"
   xmlns:cc="http://creativecommons.org/ns#"
   xmlns:rdf="http://www.w3.org/1999/02/22-rdf-syntax-ns#"
   xmlns:svg="http://www.w3.org/2000/svg"
   xmlns="http://www.w3.org/2000/svg"
   xmlns:sodipodi="http://sodipodi.sourceforge.net/DTD/sodipodi-0.dtd"
   xmlns:inkscape="http://www.inkscape.org/namespaces/inkscape"
   xml:space="preserve"
   viewBox="0 0 400 400"
   height="400"
   width="400"
   y="0px"
   x="0px"
   id="Capa_1"
   version="1.1"
   inkscape:version="0.91 r13725"
   sodipodi:docname="cooldown_lighter.svg"><sodipodi:namedview
     pagecolor="#ffffff"
     bordercolor="#666666"
     borderopacity="1"
     objecttolerance="10"
     gridtolerance="10"
     guidetolerance="10"
     inkscape:pageopacity="0"
     inkscape:pageshadow="2"
     inkscape:window-width="1920"
     inkscape:window-height="1022"
     id="namedview3481"
     showgrid="false"
     inkscape:zoom="0.59"
     inkscape:cx="200"
     inkscape:cy="200"
     inkscape:window-x="0"
     inkscape:window-y="0"
     inkscape:window-maximized="1"
     inkscape:current-layer="Capa_1" /><metadata
     id="metadata3454"><rdf:RDF><cc:Work
         rdf:about=""><dc:format>image/svg+xml</dc:format><dc:type
           rdf:resource="http://purl.org/dc/dcmitype/StillImage" /><dc:title></dc:title></cc:Work></rdf:RDF></metadata><defs
     id="defs3452" /><g
     transform="translate(-0.002,-1.9990154)"
     id="g3420" /><g
     transform="translate(-0.002,-1.9990154)"
     id="g3422" /><g
     transform="translate(-0.002,-1.9990154)"
     id="g3424" /><g
     transform="translate(-0.002,-1.9990154)"
     id="g3426" /><g
     transform="translate(-0.002,-1.9990154)"
     id="g3428" /><g
     transform="translate(-0.002,-1.9990154)"
     id="g3430" /><g
     transform="translate(-0.002,-1.9990154)"
     id="g3432" /><g
     transform="translate(-0.002,-1.9990154)"
     id="g3434" /><g
     transform="translate(-0.002,-1.9990154)"
     id="g3436" /><g
     transform="translate(-0.002,-1.9990154)"
     id="g3438" /><g
     transform="translate(-0.002,-1.9990154)"
     id="g3440" /><g
     transform="translate(-0.002,-1.9990154)"
     id="g3442" /><g
     transform="translate(-0.002,-1.9990154)"
     id="g3444" /><g
     transform="translate(-0.002,-1.9990154)"
     id="g3446" /><g
     transform="translate(-0.002,-1.9990154)"
     id="g3448" /><g
     transform="translate(-0.002,-590.00104)"
     id="layer1"><rect
       y="618.41418"
       x="31.656847"
       height="339"
       width="344"
       id="rect4278"
       style="fill:#424242;fill-opacity:1;stroke:none;stroke-opacity:0.56886226" /></g><g
     transform="translate(-0.002,-590.00104)"
     id="layer2"
     style="fill:#b3b3b3"><rect
       transform="matrix(0,-1,1,0,0,0)"
       y="192.39946"
       x="-799.62537"
       height="177.05562"
       width="180.85048"
       id="rect3458"
       style="fill:#b3b3b3;fill-opacity:1;fill-rule:evenodd;stroke:none;stroke-width:1.00406933px;stroke-linecap:butt;stroke-linejoin:miter;stroke-opacity:0.56886226" /><path
       id="path3476"
       d="m 191.4048,798.70556 183.71577,146.69757 -0.1358,-148.64189 z"
       style="fill:#b3b3b3;fill-opacity:1;fill-rule:evenodd;stroke:none;stroke-width:1px;stroke-linecap:butt;stroke-linejoin:miter;stroke-opacity:0.56862745" /></g><g
     transform="translate(-0.002,-590.00104)"
     id="layer3"><g
       style="fill:#2e3237;fill-opacity:1"
       transform="matrix(0.99950248,0,0,1,1e-6,588.00202)"
       id="g3416"><path
         style="fill:#2e3237;fill-opacity:1"
         id="path3418"
         d="M 377.87,24.126 C 361.786,8.042 342.417,0 319.769,0 L 82.227,0 C 59.579,0 40.211,8.042 24.125,24.126 8.044,40.212 0.002,59.576 0.002,82.228 l 0,237.543 c 0,22.647 8.042,42.014 24.123,58.101 16.086,16.085 35.454,24.127 58.102,24.127 l 237.542,0 c 22.648,0 42.011,-8.042 58.102,-24.127 16.085,-16.087 24.126,-35.453 24.126,-58.101 l 0,-237.543 C 401.993,59.58 393.951,40.212 377.87,24.126 Z m -12.422,295.645 c 0,12.559 -4.47,23.314 -13.415,32.264 -8.945,8.945 -19.698,13.411 -32.265,13.411 l -237.541,0 c -12.563,0 -23.317,-4.466 -32.264,-13.411 -8.945,-8.949 -15.420109,-21.70541 -15.318765,-34.264 L 36.545,82.228 C 36.646368,69.666409 41.018,58.912 49.963,49.964 58.91,41.018 69.664,36.546 82.227,36.546 l 237.542,0 c 12.566,0 23.319,4.473 32.265,13.418 8.945,8.947 13.415,19.701 13.415,32.264 l 0,237.543 z" /></g></g></svg>